<mxfile host="Electron" agent="Mozilla/5.0 (Windows NT 10.0; Win64; x64) AppleWebKit/537.36 (KHTML, like Gecko) draw.io/26.0.16 Chrome/132.0.6834.196 Electron/34.2.0 Safari/537.36" version="26.0.16">
  <diagram name="Page-1" id="e7e014a7-5840-1c2e-5031-d8a46d1fe8dd">
    <mxGraphModel dx="1391" dy="686" grid="1" gridSize="10" guides="1" tooltips="1" connect="1" arrows="1" fold="1" page="1" pageScale="1" pageWidth="1169" pageHeight="826" background="none" math="0" shadow="0">
      <root>
        <mxCell id="0" />
        <mxCell id="1" parent="0" />
        <mxCell id="2" value="Admin" style="swimlane;whiteSpace=wrap" parent="1" vertex="1">
          <mxGeometry x="210" y="67" width="335.5" height="692" as="geometry" />
        </mxCell>
        <mxCell id="5" value="" style="ellipse;shape=startState;fillColor=#000000;strokeColor=#ff0000;" parent="2" vertex="1">
          <mxGeometry x="100" y="40" width="30" height="30" as="geometry" />
        </mxCell>
        <mxCell id="6" value="" style="edgeStyle=elbowEdgeStyle;elbow=horizontal;verticalAlign=bottom;endArrow=open;endSize=8;strokeColor=#FF0000;endFill=1;rounded=0" parent="2" source="5" edge="1">
          <mxGeometry x="100" y="40" as="geometry">
            <mxPoint x="115.38235294117658" y="110" as="targetPoint" />
          </mxGeometry>
        </mxCell>
        <mxCell id="k2qXrynygnFcQe2m4YLg-41" value="Chọn chức năng tra cứu sản phẩm" style="rounded=1;whiteSpace=wrap;html=1;" parent="2" vertex="1">
          <mxGeometry x="55" y="112" width="105" height="48" as="geometry" />
        </mxCell>
        <mxCell id="IAGr2uxO39w4GgR1XOWE-22" value="Yêu cầu đăng nhập" style="rounded=1;whiteSpace=wrap;html=1;" vertex="1" parent="2">
          <mxGeometry x="65.5" y="197" width="94.5" height="48" as="geometry" />
        </mxCell>
        <mxCell id="IAGr2uxO39w4GgR1XOWE-27" value="Lựa chọn tiêu chí tìm kiếm sản phẩm" style="rounded=1;whiteSpace=wrap;html=1;" vertex="1" parent="2">
          <mxGeometry x="62.75" y="285" width="104.5" height="58" as="geometry" />
        </mxCell>
        <mxCell id="IAGr2uxO39w4GgR1XOWE-28" value="Nhập thông tin sản phẩm cần tra cứu" style="rounded=1;whiteSpace=wrap;html=1;" vertex="1" parent="2">
          <mxGeometry x="62.5" y="382" width="107.5" height="58" as="geometry" />
        </mxCell>
        <mxCell id="IAGr2uxO39w4GgR1XOWE-29" value="" style="endArrow=classic;html=1;rounded=0;entryX=0.5;entryY=0;entryDx=0;entryDy=0;exitX=0.5;exitY=1;exitDx=0;exitDy=0;" edge="1" parent="2" source="IAGr2uxO39w4GgR1XOWE-27" target="IAGr2uxO39w4GgR1XOWE-28">
          <mxGeometry width="50" height="50" relative="1" as="geometry">
            <mxPoint x="205.5" y="422" as="sourcePoint" />
            <mxPoint x="255.5" y="372" as="targetPoint" />
          </mxGeometry>
        </mxCell>
        <mxCell id="3" value="System" style="swimlane;whiteSpace=wrap" parent="1" vertex="1">
          <mxGeometry x="545.5" y="67" width="340" height="692" as="geometry" />
        </mxCell>
        <mxCell id="IAGr2uxO39w4GgR1XOWE-14" value="Kiểm tra đăng nhập" style="rounded=1;whiteSpace=wrap;html=1;" vertex="1" parent="3">
          <mxGeometry x="50" y="110" width="90" height="50" as="geometry" />
        </mxCell>
        <mxCell id="IAGr2uxO39w4GgR1XOWE-15" value="Tài khoản" style="rounded=0;whiteSpace=wrap;html=1;" vertex="1" parent="3">
          <mxGeometry x="170" y="42" width="90" height="48" as="geometry" />
        </mxCell>
        <mxCell id="IAGr2uxO39w4GgR1XOWE-16" value="" style="html=1;labelBackgroundColor=#ffffff;startArrow=none;startFill=0;startSize=6;endArrow=classic;endFill=1;endSize=6;jettySize=auto;orthogonalLoop=1;strokeWidth=1;dashed=1;fontSize=14;rounded=0;entryX=0.75;entryY=0;entryDx=0;entryDy=0;exitX=0;exitY=0.5;exitDx=0;exitDy=0;" edge="1" parent="3" source="IAGr2uxO39w4GgR1XOWE-15" target="IAGr2uxO39w4GgR1XOWE-14">
          <mxGeometry width="60" height="60" relative="1" as="geometry">
            <mxPoint x="170" y="192" as="sourcePoint" />
            <mxPoint x="170" y="112" as="targetPoint" />
          </mxGeometry>
        </mxCell>
        <mxCell id="IAGr2uxO39w4GgR1XOWE-17" value="" style="rhombus;whiteSpace=wrap;html=1;" vertex="1" parent="3">
          <mxGeometry x="50" y="192" width="90" height="58" as="geometry" />
        </mxCell>
        <mxCell id="IAGr2uxO39w4GgR1XOWE-18" value="" style="endArrow=classic;html=1;rounded=0;entryX=0.5;entryY=0;entryDx=0;entryDy=0;exitX=0.5;exitY=1;exitDx=0;exitDy=0;" edge="1" parent="3" source="IAGr2uxO39w4GgR1XOWE-14" target="IAGr2uxO39w4GgR1XOWE-17">
          <mxGeometry width="50" height="50" relative="1" as="geometry">
            <mxPoint x="-150" y="272" as="sourcePoint" />
            <mxPoint x="-100" y="222" as="targetPoint" />
          </mxGeometry>
        </mxCell>
        <mxCell id="IAGr2uxO39w4GgR1XOWE-21" value="Sai" style="text;html=1;align=center;verticalAlign=middle;resizable=0;points=[];autosize=1;strokeColor=none;fillColor=none;" vertex="1" parent="3">
          <mxGeometry x="20" y="192" width="40" height="30" as="geometry" />
        </mxCell>
        <mxCell id="IAGr2uxO39w4GgR1XOWE-25" value="Đúng" style="text;html=1;align=center;verticalAlign=middle;resizable=0;points=[];autosize=1;strokeColor=none;fillColor=none;" vertex="1" parent="3">
          <mxGeometry x="50" y="240" width="50" height="30" as="geometry" />
        </mxCell>
        <mxCell id="IAGr2uxO39w4GgR1XOWE-31" value="Thực hiện tra cứu sản phẩm" style="rounded=1;whiteSpace=wrap;html=1;" vertex="1" parent="3">
          <mxGeometry x="80" y="380" width="120" height="60" as="geometry" />
        </mxCell>
        <mxCell id="IAGr2uxO39w4GgR1XOWE-32" value="Sản phẩm" style="rounded=0;whiteSpace=wrap;html=1;" vertex="1" parent="3">
          <mxGeometry x="200" y="285" width="100" height="55" as="geometry" />
        </mxCell>
        <mxCell id="IAGr2uxO39w4GgR1XOWE-33" value="" style="html=1;labelBackgroundColor=#ffffff;startArrow=none;startFill=0;startSize=6;endArrow=classic;endFill=1;endSize=6;jettySize=auto;orthogonalLoop=1;strokeWidth=1;dashed=1;fontSize=14;rounded=0;entryX=0.5;entryY=0;entryDx=0;entryDy=0;exitX=0;exitY=0.5;exitDx=0;exitDy=0;" edge="1" parent="3" source="IAGr2uxO39w4GgR1XOWE-32" target="IAGr2uxO39w4GgR1XOWE-31">
          <mxGeometry width="60" height="60" relative="1" as="geometry">
            <mxPoint x="192" y="263" as="sourcePoint" />
            <mxPoint x="140" y="307" as="targetPoint" />
          </mxGeometry>
        </mxCell>
        <mxCell id="IAGr2uxO39w4GgR1XOWE-34" value="" style="endArrow=classic;html=1;rounded=0;exitX=0.5;exitY=1;exitDx=0;exitDy=0;entryX=0.5;entryY=0;entryDx=0;entryDy=0;" edge="1" parent="3" source="IAGr2uxO39w4GgR1XOWE-31" target="IAGr2uxO39w4GgR1XOWE-35">
          <mxGeometry width="50" height="50" relative="1" as="geometry">
            <mxPoint x="130" y="572" as="sourcePoint" />
            <mxPoint x="140" y="512" as="targetPoint" />
          </mxGeometry>
        </mxCell>
        <mxCell id="IAGr2uxO39w4GgR1XOWE-35" value="Thông báo kết quả" style="rounded=1;whiteSpace=wrap;html=1;" vertex="1" parent="3">
          <mxGeometry x="80" y="522" width="120" height="60" as="geometry" />
        </mxCell>
        <mxCell id="IAGr2uxO39w4GgR1XOWE-38" value="" style="endArrow=classic;html=1;rounded=0;exitX=0.5;exitY=1;exitDx=0;exitDy=0;entryX=0.5;entryY=0;entryDx=0;entryDy=0;" edge="1" parent="3" source="IAGr2uxO39w4GgR1XOWE-35" target="IAGr2uxO39w4GgR1XOWE-39">
          <mxGeometry width="50" height="50" relative="1" as="geometry">
            <mxPoint x="70" y="652" as="sourcePoint" />
            <mxPoint x="140" y="622" as="targetPoint" />
          </mxGeometry>
        </mxCell>
        <mxCell id="IAGr2uxO39w4GgR1XOWE-39" value="" style="ellipse;html=1;shape=endState;fillColor=#000000;strokeColor=#ff0000;" vertex="1" parent="3">
          <mxGeometry x="125" y="632" width="30" height="30" as="geometry" />
        </mxCell>
        <mxCell id="IAGr2uxO39w4GgR1XOWE-13" value="" style="endArrow=classic;html=1;rounded=0;exitX=1;exitY=0.5;exitDx=0;exitDy=0;entryX=0;entryY=0.5;entryDx=0;entryDy=0;" edge="1" parent="1" source="k2qXrynygnFcQe2m4YLg-41" target="IAGr2uxO39w4GgR1XOWE-14">
          <mxGeometry width="50" height="50" relative="1" as="geometry">
            <mxPoint x="395.5" y="249" as="sourcePoint" />
            <mxPoint x="595.5" y="203" as="targetPoint" />
          </mxGeometry>
        </mxCell>
        <mxCell id="IAGr2uxO39w4GgR1XOWE-20" value="" style="endArrow=classic;html=1;rounded=0;exitX=0;exitY=0.5;exitDx=0;exitDy=0;entryX=1;entryY=0.5;entryDx=0;entryDy=0;" edge="1" parent="1" source="IAGr2uxO39w4GgR1XOWE-17" target="IAGr2uxO39w4GgR1XOWE-22">
          <mxGeometry width="50" height="50" relative="1" as="geometry">
            <mxPoint x="365.5" y="349" as="sourcePoint" />
            <mxPoint x="415.5" y="289" as="targetPoint" />
          </mxGeometry>
        </mxCell>
        <mxCell id="IAGr2uxO39w4GgR1XOWE-23" value="" style="endArrow=classic;html=1;rounded=0;exitX=1;exitY=0.5;exitDx=0;exitDy=0;entryX=0;entryY=0.5;entryDx=0;entryDy=0;" edge="1" parent="1" source="IAGr2uxO39w4GgR1XOWE-22" target="IAGr2uxO39w4GgR1XOWE-14">
          <mxGeometry width="50" height="50" relative="1" as="geometry">
            <mxPoint x="455.5" y="279" as="sourcePoint" />
            <mxPoint x="505.5" y="229" as="targetPoint" />
          </mxGeometry>
        </mxCell>
        <mxCell id="IAGr2uxO39w4GgR1XOWE-24" value="" style="endArrow=classic;html=1;rounded=0;exitX=0.5;exitY=1;exitDx=0;exitDy=0;entryX=1;entryY=0.5;entryDx=0;entryDy=0;" edge="1" parent="1" source="IAGr2uxO39w4GgR1XOWE-17" target="IAGr2uxO39w4GgR1XOWE-27">
          <mxGeometry width="50" height="50" relative="1" as="geometry">
            <mxPoint x="675.5" y="419" as="sourcePoint" />
            <mxPoint x="640.5" y="379" as="targetPoint" />
            <Array as="points">
              <mxPoint x="640.5" y="379" />
            </Array>
          </mxGeometry>
        </mxCell>
        <mxCell id="IAGr2uxO39w4GgR1XOWE-30" value="" style="endArrow=classic;html=1;rounded=0;exitX=1;exitY=0.5;exitDx=0;exitDy=0;entryX=0;entryY=0.5;entryDx=0;entryDy=0;" edge="1" parent="1" source="IAGr2uxO39w4GgR1XOWE-28" target="IAGr2uxO39w4GgR1XOWE-31">
          <mxGeometry width="50" height="50" relative="1" as="geometry">
            <mxPoint x="495.5" y="519" as="sourcePoint" />
            <mxPoint x="605.5" y="459" as="targetPoint" />
          </mxGeometry>
        </mxCell>
      </root>
    </mxGraphModel>
  </diagram>
</mxfile>
